<?xml version="1.0" standalone="no"?>
<!DOCTYPE svg PUBLIC "-//W3C//DTD SVG 20010904//EN"
 "http://www.w3.org/TR/2001/REC-SVG-20010904/DTD/svg10.dtd">
<svg version="1.0" xmlns="http://www.w3.org/2000/svg"
 width="1020.000000pt" height="1020.000000pt" viewBox="0 0 1020.000000 1020.000000"
 preserveAspectRatio="xMidYMid meet">
<metadata>
Created by potrace 1.14, written by Peter Selinger 2001-2017
</metadata>
<g transform="translate(0.000000,1020.000000) scale(0.100000,-0.100000)"
fill="#000000" stroke="none">
<path d="M4737 8644 c-3 -3 -98 -11 -242 -19 -33 -2 -60 -4 -60 -5 0 -2 -20
-4 -45 -5 -43 -3 -93 -9 -170 -19 -19 -3 -57 -8 -85 -11 -73 -9 -370 -63 -440
-81 -33 -8 -68 -16 -78 -19 -10 -2 -52 -14 -95 -25 -42 -12 -81 -23 -87 -24
-5 -1 -14 -4 -20 -7 -9 -5 -26 -11 -80 -25 -5 -1 -41 -14 -80 -29 -38 -15 -88
-34 -110 -41 -52 -19 -318 -150 -360 -178 -18 -11 -63 -39 -99 -61 -36 -22
-66 -43 -66 -47 0 -5 -6 -8 -13 -8 -7 0 -20 -8 -28 -17 -9 -10 -26 -25 -39
-33 -79 -52 -298 -257 -384 -360 -57 -70 -164 -236 -224 -350 -18 -36 -38 -71
-44 -77 -6 -7 -8 -13 -4 -13 4 0 -3 -19 -15 -42 -12 -24 -21 -44 -20 -46 1 -1
-5 -15 -13 -30 -12 -25 -62 -166 -71 -202 -2 -8 -16 -62 -30 -119 -15 -57 -28
-115 -30 -130 -2 -14 -7 -37 -10 -51 -21 -99 -23 -195 -25 -1177 l-2 -862 36
-59 c29 -48 104 -127 183 -192 63 -52 228 -144 348 -194 50 -21 99 -41 110
-46 21 -10 199 -69 225 -76 8 -2 100 -26 205 -54 104 -27 208 -52 230 -56 22
-3 43 -7 46 -10 4 -2 24 -6 45 -9 22 -4 47 -8 56 -11 23 -7 58 -14 93 -18 17
-3 42 -7 55 -10 14 -3 41 -8 60 -11 19 -3 60 -9 90 -14 30 -5 89 -14 130 -21
41 -6 88 -13 105 -16 16 -3 52 -7 80 -10 27 -3 61 -7 75 -9 31 -4 120 -14 180
-20 25 -3 70 -7 100 -11 56 -6 88 -8 260 -19 210 -12 383 -16 770 -15 223 1
437 3 475 5 202 9 323 16 345 20 14 2 59 7 100 10 73 5 90 7 196 20 28 4 68 8
90 10 37 3 168 20 224 29 14 3 45 7 70 10 25 3 56 8 70 11 14 3 39 7 55 9 17
2 46 7 65 11 19 3 46 8 60 10 14 2 36 6 50 9 14 3 36 8 50 10 14 2 45 9 70 15
25 5 57 12 73 15 15 2 35 7 45 10 9 3 31 7 47 10 47 8 278 67 300 76 11 5 47
16 80 25 242 66 587 221 673 302 7 7 17 13 21 13 3 0 34 26 67 58 58 56 113
127 128 167 5 11 10 104 12 208 1 103 6 192 9 197 3 6 1 10 -5 10 -6 0 -8 5
-4 11 5 9 10 868 5 1009 -1 19 -1 42 0 50 2 42 -11 483 -15 498 -3 9 -7 37
-10 62 -3 25 -8 56 -11 70 -3 14 -7 36 -10 50 -23 114 -22 109 -25 113 -1 1
-4 11 -5 22 -3 21 -22 85 -57 190 -31 90 -99 248 -116 268 -8 9 -12 17 -9 17
11 0 -135 232 -167 266 -6 6 -18 22 -26 34 -47 70 -209 244 -279 300 -17 14
-44 36 -59 50 -148 130 -378 269 -607 369 -27 12 -59 26 -70 31 -106 49 -394
142 -506 164 -8 2 -27 6 -44 10 -113 27 -136 32 -200 42 -16 2 -41 7 -53 10
-13 3 -43 7 -65 10 -23 3 -62 10 -87 14 -24 5 -48 6 -52 4 -5 -3 -8 -2 -8 3 0
4 -15 9 -33 10 -17 1 -52 4 -77 7 -25 3 -70 8 -100 10 -30 2 -80 7 -110 11
-134 15 -971 31 -983 19z"/>
<path d="M470 4198 c-286 -89 -370 -125 -416 -175 -44 -47 -54 -97 -50 -243 3
-102 8 -139 29 -203 30 -88 86 -211 125 -271 15 -23 27 -43 27 -46 1 -8 80
-122 102 -147 11 -12 28 -34 39 -50 21 -30 251 -263 299 -303 17 -14 50 -41
75 -60 25 -19 47 -37 50 -40 3 -4 55 -40 115 -82 227 -155 491 -296 770 -413
17 -7 44 -18 60 -25 17 -8 32 -14 35 -15 3 -1 14 -5 25 -9 11 -4 45 -17 75
-28 30 -11 64 -24 75 -28 44 -19 323 -109 358 -115 9 -2 22 -7 27 -10 5 -3 18
-8 27 -10 10 -2 50 -13 88 -25 39 -12 77 -23 85 -24 8 -2 35 -9 60 -16 25 -7
52 -14 60 -15 8 -2 15 -4 15 -5 0 -1 7 -3 15 -5 8 -2 85 -20 170 -40 85 -20
164 -39 175 -41 52 -10 193 -36 220 -39 17 -3 41 -7 55 -10 23 -5 38 -7 115
-20 48 -8 294 -44 345 -50 70 -9 178 -19 198 -19 12 0 22 -2 22 -5 0 -3 26 -7
58 -8 31 -1 75 -4 97 -7 22 -3 75 -8 119 -11 43 -3 108 -7 145 -11 36 -3 108
-6 159 -8 51 -2 95 -6 98 -9 4 -4 15 -2 25 3 10 6 20 7 23 2 6 -9 882 -9 892
0 4 4 14 3 24 -2 10 -5 20 -6 24 -3 3 3 39 7 78 9 82 2 237 12 313 20 28 3 68
6 90 8 22 2 67 6 100 10 33 4 80 9 105 11 136 15 168 19 235 28 22 4 65 9 95
12 30 3 62 8 71 11 9 2 36 6 60 9 24 2 55 6 69 9 14 3 43 7 65 11 22 3 65 10
95 15 30 5 69 12 85 15 17 2 41 7 55 10 14 3 41 8 60 11 19 3 38 8 41 10 4 2
24 6 45 10 22 3 47 10 57 16 10 5 21 7 24 4 3 -2 16 -1 29 4 14 6 35 12 47 14
12 2 42 9 67 16 25 7 56 14 70 17 98 18 702 205 785 243 49 23 125 49 125 44
0 -4 6 -2 13 3 6 6 53 27 102 47 50 21 97 42 105 47 8 5 29 14 45 21 122 47
518 272 625 355 8 6 46 35 85 64 190 144 411 367 505 509 8 12 23 33 33 45 9
13 17 26 17 30 0 3 11 21 24 38 54 72 147 301 164 402 11 69 7 228 -7 268 -28
81 -113 136 -304 198 -119 38 -166 48 -251 53 -60 4 -86 -2 -86 -20 0 -7 12
-48 26 -91 14 -42 26 -95 26 -117 -1 -44 -10 -104 -18 -118 -3 -5 -7 -21 -10
-36 -13 -76 -162 -323 -272 -451 -147 -171 -327 -330 -532 -471 -36 -25 -67
-48 -70 -51 -3 -3 -24 -16 -47 -29 -24 -13 -43 -28 -43 -34 0 -5 -3 -6 -6 -3
-4 4 -19 -2 -33 -12 -14 -10 -44 -29 -66 -41 -144 -81 -201 -111 -221 -116
-13 -3 -28 -12 -35 -20 -6 -8 -15 -14 -20 -14 -4 0 -36 -13 -71 -29 -116 -53
-162 -73 -173 -76 -5 -1 -26 -8 -45 -16 -19 -7 -38 -12 -42 -11 -5 1 -8 -3 -8
-10 0 -6 -3 -8 -7 -5 -3 4 -11 3 -18 -3 -8 -7 -163 -61 -185 -65 -3 0 -9 -3
-15 -6 -14 -9 -187 -62 -202 -62 -7 0 -13 -4 -13 -9 0 -4 -13 -8 -29 -8 -17 0
-33 -5 -36 -10 -4 -6 -12 -10 -18 -9 -7 1 -19 0 -27 -3 -36 -14 -343 -92 -410
-104 -14 -3 -68 -13 -120 -24 -86 -17 -135 -26 -195 -35 -11 -2 -51 -9 -90
-15 -38 -7 -83 -13 -100 -14 -16 -1 -36 -5 -42 -9 -7 -5 -16 -6 -21 -3 -4 2
-30 0 -57 -5 -27 -5 -77 -11 -110 -14 -34 -3 -71 -7 -82 -9 -12 -3 -56 -7
-100 -11 -43 -4 -94 -8 -113 -11 -217 -26 -1435 -26 -1590 0 -14 3 -54 7 -90
10 -36 4 -83 8 -105 11 -22 3 -65 7 -95 11 -30 3 -66 7 -80 9 -14 1 -50 6 -80
9 -51 5 -78 9 -140 21 -14 3 -43 7 -65 11 -22 3 -51 7 -65 10 -14 2 -44 7 -67
9 -23 3 -53 9 -68 15 -14 5 -29 9 -33 8 -4 -1 -34 4 -67 12 -33 7 -64 14 -70
15 -5 1 -21 4 -35 8 -27 7 -183 45 -215 51 -11 3 -76 21 -145 41 -127 36 -146
42 -177 49 -10 2 -29 9 -43 14 -14 5 -29 11 -35 12 -13 3 -12 3 -120 38 -91
30 -297 110 -390 151 -113 51 -395 195 -395 203 0 4 -6 8 -12 8 -7 0 -41 18
-76 40 -34 22 -67 40 -72 40 -6 0 -10 4 -10 8 0 5 -19 19 -42 32 -24 13 -85
55 -136 94 -52 39 -101 76 -110 81 -9 6 -25 19 -37 30 -12 11 -39 35 -61 53
-94 80 -283 276 -308 320 -5 10 -15 23 -22 30 -57 57 -192 307 -209 386 -2 11
-6 32 -10 46 -15 69 -7 147 23 221 19 46 26 78 21 84 -12 12 -153 14 -189 3z"/>
<path d="M815 4122 c-123 -40 -119 -233 7 -447 89 -151 279 -372 427 -495 29
-25 59 -50 65 -55 6 -6 45 -35 86 -65 41 -30 77 -57 80 -60 20 -23 361 -230
378 -230 5 0 14 -6 21 -12 6 -7 15 -13 19 -14 4 0 63 -27 132 -61 113 -54 149
-71 230 -105 167 -71 328 -127 635 -218 69 -21 353 -90 387 -94 21 -2 42 -7
48 -11 6 -4 21 -8 33 -10 12 -1 38 -6 57 -10 19 -4 44 -8 55 -10 17 -2 55 -9
160 -29 11 -2 45 -7 75 -11 30 -4 64 -9 75 -11 23 -5 67 -11 140 -19 28 -3 61
-8 75 -10 57 -9 173 -22 275 -30 39 -3 84 -7 100 -10 167 -25 1202 -25 1450 0
130 13 165 16 210 20 28 3 66 8 86 10 20 3 54 7 75 10 53 5 115 14 139 19 11
2 47 7 80 11 32 3 62 8 65 10 3 1 25 6 50 9 46 6 78 12 128 21 15 3 40 8 57
10 16 3 64 12 105 20 41 8 84 17 95 19 67 14 185 42 280 68 61 16 117 31 125
33 8 2 47 13 85 25 39 11 75 22 80 23 29 8 123 40 140 47 34 15 130 45 138 42
4 -1 7 2 7 8 0 5 6 10 14 10 17 0 257 100 338 141 32 16 58 26 58 22 0 -5 4
-3 8 3 4 6 43 29 87 51 44 22 96 49 115 60 19 11 51 29 70 39 19 11 37 22 40
25 3 3 16 12 30 19 36 19 163 102 178 117 7 7 17 13 21 13 4 0 16 8 27 18 10
10 37 31 59 47 77 56 171 140 275 245 119 120 153 158 163 183 3 9 11 17 17
17 5 0 10 6 10 14 0 8 3 16 8 18 9 4 80 111 92 141 6 12 14 29 19 37 20 34 59
136 67 175 4 23 7 89 5 121 -1 23 -57 87 -81 93 -8 2 -25 5 -38 6 -34 5 -273
-122 -546 -289 -126 -77 -141 -88 -142 -101 -1 -5 -4 -47 -8 -93 -12 -164 -84
-291 -231 -407 -27 -22 -52 -43 -55 -46 -12 -14 -210 -128 -275 -158 -38 -18
-82 -39 -97 -47 -15 -8 -31 -15 -35 -15 -5 -1 -24 -7 -43 -16 -94 -39 -417
-142 -530 -168 -8 -2 -55 -13 -105 -25 -49 -11 -99 -22 -110 -24 -11 -2 -31
-6 -45 -10 -14 -3 -36 -8 -50 -10 -14 -3 -50 -9 -80 -15 -30 -6 -68 -13 -85
-16 -16 -2 -41 -7 -55 -10 -14 -3 -38 -7 -55 -9 -16 -3 -48 -7 -70 -11 -22 -3
-51 -8 -65 -10 -14 -2 -56 -9 -95 -15 -104 -17 -182 -27 -265 -34 -19 -2 -69
-7 -110 -11 -41 -4 -91 -9 -110 -10 -19 -2 -75 -6 -125 -10 -134 -11 -166 -13
-335 -21 -186 -10 -936 -10 -1070 0 -52 3 -135 9 -185 11 -226 13 -351 23
-398 31 -15 2 -51 6 -80 9 -28 2 -63 6 -77 9 -14 2 -52 8 -85 11 -68 9 -80 10
-150 20 -27 4 -61 9 -75 10 -25 3 -243 41 -290 50 -14 3 -47 9 -75 15 -27 5
-61 12 -75 15 -14 2 -50 10 -80 16 -73 15 -73 15 -90 21 -8 3 -55 16 -105 28
-81 20 -298 82 -335 97 -8 3 -19 7 -25 9 -36 9 -162 58 -169 65 -6 5 -16 9
-23 9 -43 0 -355 171 -453 249 -117 92 -213 219 -235 311 -4 15 -16 122 -19
164 -3 39 -9 53 -32 72 -16 13 -32 23 -35 24 -4 0 -54 29 -113 65 -58 36 -109
65 -113 65 -3 0 -21 11 -39 25 -18 14 -35 25 -39 25 -3 0 -22 11 -43 23 -20
13 -80 45 -132 71 -52 27 -103 52 -112 57 -20 10 -33 10 -63 1z"/>
</g>
</svg>
